<svg xmlns="http://www.w3.org/2000/svg" viewBox="0 0 24 24" width="240px" heigt="240px">
    <path d="M12 0C5.373 0 0 5.373 0 12s5.373 12 12 12 12-5.373 12-12S18.627 0 12 0zm4.5 9.75h-3.75v-1.5h3.75v1.5zm-1.5 3.75h-2.25v-1.5h2.25v1.5zm-3.75-1.5H7.5v-1.5h3.75v1.5zm0-3.75H7.5v-1.5h3.75v1.5zm-1.5 7.5h-2.25v-1.5h2.25v1.5zm3.75 0h-1.5v-1.5h1.5v1.5zm0-3.75h-1.5v-1.5h1.5v1.5zm0-3.75h-1.5v-1.5h1.5v1.5zm0-3.75h-1.5v-1.5h1.5v1.5zm-3.75 0H7.5v-1.5h3.75v1.5zm0 3.75H7.5v-1.5h3.75v1.5zm1.5-3.75h-2.25v-1.5h2.25v1.5zm0 3.75h-2.25v-1.5h2.25v1.5zm1.5 0h-3.75v-1.5h3.75v1.5zm0-3.75h-3.75v-1.5h3.75v1.5z"/>
</svg>
